<svg width="28px" height="27px" viewBox="0 0 32 31" version="1.1" xmlns="http://www.w3.org/2000/svg" xmlns:xlink="http://www.w3.org/1999/xlink">
  <defs>
    <path d="M31.6038095,20.8101587 L31.6038095,21.9174603 L31.5885714,22.8571429 C31.5791959,23.5363629 31.5180665,24.2138806 31.4057143,24.8838095 C31.0695127,26.9452483 29.7611979,28.7186576 27.8907937,29.648254 C27.2774124,29.9562953 26.6218595,30.1719602 25.9453968,30.288254 C25.2647619,30.4050794 24.5739683,30.4457143 23.8933333,30.4660317 C22.5726984,30.4812698 22.2019048,30.4812698 21.8260317,30.4812698 L9.77777778,30.4812698 C8.34539683,30.4812698 8.03047619,30.4761905 7.71555556,30.4660317 C7.02984127,30.4457143 6.33904762,30.4050794 5.66349206,30.288254 C4.98354539,30.1729313 4.32450114,29.957244 3.70793651,29.648254 C1.84728102,28.7066939 0.545908563,26.9356958 0.203174603,24.8787302 C0.0905847424,24.2071245 0.0294545792,23.5279005 0.0203174603,22.8469841 C0.0134352616,22.5371909 0.0100488027,22.2273299 0.0101587302,21.9174603 L0,20.8101587 L0,9.66603175 L0,8.55873016 L0.0152380952,7.62412698 C0.0355555556,6.94857143 0.0761904762,6.26793651 0.198095238,5.59238095 C0.533943234,3.53353242 1.84023953,1.76218708 3.70793651,0.833015873 C4.32319035,0.526257707 4.98047772,0.312296974 5.6584127,0.198095238 C6.33396825,0.0812698413 7.0247619,0.0406349206 7.71047619,0.0203174603 C9.03111111,0 9.40698413,0 9.77777778,0 L21.5212698,0 L16.9752381,0 L21.8260317,0 C23.2634921,0 23.5784127,0.00507936508 23.8933333,0.0152380952 C24.5739683,0.0355555556 25.2647619,0.0761904762 25.9453968,0.193015873 C26.6311111,0.314920635 27.2711111,0.518095238 27.895873,0.833015873 C29.7577322,1.77167939 31.061168,3.54103217 31.4057143,5.59746032 C31.527619,6.26793651 31.568254,6.94857143 31.5885714,7.62920635 C31.5987302,7.93396825 31.5987302,8.24888889 31.6038095,8.55873016 L31.6038095,20.8101587 L31.6038095,20.8101587 Z" id="path-1"></path>
    <linearGradient x1="51.6035828%" y1="5.2238806%" x2="51.6035828%" y2="99.7462687%" id="linearGradient-3">
      <stop stop-color="#F743B6" offset="0%"></stop>
      <stop stop-color="#FCC043" offset="100%"></stop>
    </linearGradient>
  </defs>
  <g id="Page-1" stroke="none" stroke-width="1" fill="none" fill-rule="evenodd">
    <g id="test">
      <g id="a" fill="#FFFFFF">
        <path d="M31.6038095,20.8101587 L31.6038095,21.9174603 L31.5885714,22.8571429 C31.5791959,23.5363629 31.5180665,24.2138806 31.4057143,24.8838095 C31.0695127,26.9452483 29.7611979,28.7186576 27.8907937,29.648254 C27.2774124,29.9562953 26.6218595,30.1719602 25.9453968,30.288254 C25.2647619,30.4050794 24.5739683,30.4457143 23.8933333,30.4660317 C22.5726984,30.4812698 22.2019048,30.4812698 21.8260317,30.4812698 L9.77777778,30.4812698 C8.34539683,30.4812698 8.03047619,30.4761905 7.71555556,30.4660317 C7.02984127,30.4457143 6.33904762,30.4050794 5.66349206,30.288254 C4.98354539,30.1729313 4.32450114,29.957244 3.70793651,29.648254 C1.84728102,28.7066939 0.545908563,26.9356958 0.203174603,24.8787302 C0.0905847424,24.2071245 0.0294545792,23.5279005 0.0203174603,22.8469841 C0.0134352616,22.5371909 0.0100488027,22.2273299 0.0101587302,21.9174603 L0,20.8101587 L0,9.66603175 L0,8.55873016 L0.0152380952,7.62412698 C0.0355555556,6.94857143 0.0761904762,6.26793651 0.198095238,5.59238095 C0.533943234,3.53353242 1.84023953,1.76218708 3.70793651,0.833015873 C4.32319035,0.526257707 4.98047772,0.312296974 5.6584127,0.198095238 C6.33396825,0.0812698413 7.0247619,0.0406349206 7.71047619,0.0203174603 C9.03111111,0 9.40698413,0 9.77777778,0 L21.5212698,0 L16.9752381,0 L21.8260317,0 C23.2634921,0 23.5784127,0.00507936508 23.8933333,0.0152380952 C24.5739683,0.0355555556 25.2647619,0.0761904762 25.9453968,0.193015873 C26.6311111,0.314920635 27.2711111,0.518095238 27.895873,0.833015873 C29.7577322,1.77167939 31.061168,3.54103217 31.4057143,5.59746032 C31.527619,6.26793651 31.568254,6.94857143 31.5885714,7.62920635 C31.5987302,7.93396825 31.5987302,8.24888889 31.6038095,8.55873016 L31.6038095,20.8101587 L31.6038095,20.8101587 Z" id="Shape"></path>
      </g>
      <path d="M31.6038095,20.8101587 L31.6038095,21.9174603 L31.5885714,22.8571429 C31.5791959,23.5363629 31.5180665,24.2138806 31.4057143,24.8838095 C31.0695127,26.9452483 29.7611979,28.7186576 27.8907937,29.648254 C27.2774124,29.9562953 26.6218595,30.1719602 25.9453968,30.288254 C25.2647619,30.4050794 24.5739683,30.4457143 23.8933333,30.4660317 C22.5726984,30.4812698 22.2019048,30.4812698 21.8260317,30.4812698 L9.77777778,30.4812698 C8.34539683,30.4812698 8.03047619,30.4761905 7.71555556,30.4660317 C7.02984127,30.4457143 6.33904762,30.4050794 5.66349206,30.288254 C4.98354539,30.1729313 4.32450114,29.957244 3.70793651,29.648254 C1.84728102,28.7066939 0.545908563,26.9356958 0.203174603,24.8787302 C0.0905847424,24.2071245 0.0294545792,23.5279005 0.0203174603,22.8469841 C0.0134352616,22.5371909 0.0100488027,22.2273299 0.0101587302,21.9174603 L0,20.8101587 L0,9.66603175 L0,8.55873016 L0.0152380952,7.62412698 C0.0355555556,6.94857143 0.0761904762,6.26793651 0.198095238,5.59238095 C0.533943234,3.53353242 1.84023953,1.76218708 3.70793651,0.833015873 C4.32319035,0.526257707 4.98047772,0.312296974 5.6584127,0.198095238 C6.33396825,0.0812698413 7.0247619,0.0406349206 7.71047619,0.0203174603 C9.03111111,0 9.40698413,0 9.77777778,0 L21.5212698,0 L16.9752381,0 L21.8260317,0 C23.2634921,0 23.5784127,0.00507936508 23.8933333,0.0152380952 C24.5739683,0.0355555556 25.2647619,0.0761904762 25.9453968,0.193015873 C26.6311111,0.314920635 27.2711111,0.518095238 27.895873,0.833015873 C29.7577322,1.77167939 31.061168,3.54103217 31.4057143,5.59746032 C31.527619,6.26793651 31.568254,6.94857143 31.5885714,7.62920635 C31.5987302,7.93396825 31.5987302,8.24888889 31.6038095,8.55873016 L31.6038095,20.8101587 L31.6038095,20.8101587 Z" id="Shape" fill="#000000"></path>
      <g id="Clipped">
        <mask id="mask-2" fill="white">
          <use xlink:href="#path-1"></use>
        </mask>
        <g id="Shape"></g>
        <path d="M31.6038095,21.9174603 L29.8260317,21.9073016 L31.6038095,21.9174603 L31.6038095,21.9174603 Z M31.5885714,22.8571429 L29.8107937,22.8063492 L31.5885714,22.8571429 L31.5885714,22.8571429 Z M31.4057143,24.8838095 L29.6584127,24.5638095 L31.4057143,24.8838095 L31.4057143,24.8838095 Z M30.7657143,26.8139683 L29.1860317,26.0012698 L30.7606349,26.8139683 L30.7657143,26.8139683 Z M29.5568254,28.4546032 L30.8063492,29.7244444 L29.5619048,28.4444444 L29.5568254,28.4546032 Z M27.895873,29.648254 L27.0984127,28.0634921 L27.895873,29.648254 L27.895873,29.648254 Z M25.9453968,30.288254 L25.6355556,28.535873 L25.9403175,30.288254 L25.9453968,30.288254 Z M23.8933333,30.4660317 L23.9136508,32.2438095 L23.9390476,32.2438095 L23.888254,30.4660317 L23.8933333,30.4660317 Z M9.77777778,30.4761905 L9.77269841,32.2539683 L9.77777778,32.2539683 L9.77777778,30.4761905 L9.77777778,30.4761905 Z M7.71555556,30.4609524 L7.76634921,28.6831746 L7.71555556,30.4609524 L7.71555556,30.4609524 Z M5.66349206,30.2831746 L5.96825397,28.5307937 L5.66349206,30.2831746 L5.66349206,30.2831746 Z M3.70793651,29.6431746 L4.51047619,28.0584127 L3.70793651,29.6431746 L3.70793651,29.6431746 Z M2.04698413,28.4495238 L0.797460317,29.7193651 L2.04698413,28.4444444 L2.04698413,28.4495238 Z M0.838095238,26.8088889 L-0.736507937,27.6215873 L0.838095238,26.8088889 L0.838095238,26.8088889 Z M0.203174603,24.8787302 L-1.54920635,25.1987302 L0.203174603,24.8787302 L0.203174603,24.8787302 Z M0.0203174603,22.8469841 L1.79809524,22.8012698 L0.0203174603,22.8520635 L0.0203174603,22.8469841 Z M0.0101587302,21.9174603 L1.78793651,21.9073016 L0.0101587302,21.9174603 L0.0101587302,21.9174603 Z M0.0101587302,8.55873016 L1.78793651,8.57396825 L1.78793651,8.56888889 L4.4408921e-16,8.55873016 L0.0101587302,8.55873016 Z M0.0203174603,7.62412698 L1.79809524,7.67492063 L0.0203174603,7.62412698 L0.0203174603,7.62412698 Z M0.203174603,5.59238095 L-1.54920635,5.27746032 L0.203174603,5.59746032 L0.203174603,5.59238095 Z M0.843174603,3.66730159 L-0.731428571,2.85460317 L0.843174603,3.66730159 L0.843174603,3.66730159 Z M2.05206349,2.02666667 L3.3015873,3.29142857 L2.05206349,2.0215873 L2.05206349,2.02666667 Z M3.70793651,0.833015873 L4.51047619,2.41777778 L3.70793651,0.833015873 L3.70793651,0.833015873 Z M5.66349206,0.193015873 L5.96825397,1.94539683 L5.66349206,0.193015873 L5.66349206,0.193015873 Z M7.71555556,0.0152380952 L7.6952381,-1.76253968 L7.6647619,-1.76253968 L7.71555556,0.0152380952 L7.71555556,0.0152380952 Z M21.5212698,4.4408921e-16 L21.5212698,1.77777778 L21.5212698,-1.77777778 L21.5212698,4.4408921e-16 L21.5212698,4.4408921e-16 Z M16.9752381,4.4408921e-16 L16.9752381,-1.77777778 L16.9752381,1.77777778 L16.9752381,4.4408921e-16 L16.9752381,4.4408921e-16 Z M21.8260317,4.4408921e-16 L21.8311111,-1.77777778 L21.8311111,4.4408921e-16 L21.8260317,4.4408921e-16 Z M23.8933333,0.0152380952 L23.8425397,1.79301587 L23.8933333,0.0152380952 L23.8933333,0.0152380952 Z M25.9453968,0.193015873 L25.6355556,1.94539683 L25.9403175,0.193015873 L25.9453968,0.193015873 Z M27.895873,0.833015873 L27.0933333,2.41777778 L27.895873,0.833015873 L27.895873,0.833015873 Z M29.5568254,2.02666667 L28.3073016,3.28634921 L29.5619048,2.03174603 L29.5568254,2.02666667 Z M30.7657143,3.66730159 L29.1860317,4.48 L30.7606349,3.66730159 L30.7657143,3.66730159 Z M31.4057143,5.59746032 L29.6584127,5.91238095 L31.4057143,5.59746032 L31.4057143,5.59746032 Z M31.5885714,7.62920635 L29.8107937,7.67492063 L31.5885714,7.62412698 L31.5885714,7.62920635 Z M31.6038095,8.55873016 L29.8260317,8.56888889 L31.6038095,8.55873016 L31.6038095,8.55873016 Z M29.8260317,20.8101587 L29.8260317,21.9073016 L33.3815873,21.927619 L33.3815873,20.8101587 L29.8260317,20.8101587 L29.8260317,20.8101587 Z M29.8260317,21.9073016 C29.8260317,22.2120635 29.8209524,22.5066667 29.8107937,22.8012698 L33.3663492,22.9028571 L33.3815873,21.927619 L29.8260317,21.9073016 L29.8260317,21.9073016 Z M29.8107937,22.8012698 C29.7955556,23.4463492 29.76,24.0253968 29.6584127,24.5587302 L33.1580952,25.1987302 C33.3053968,24.3961905 33.3460317,23.6038095 33.3612698,22.8977778 L29.8107937,22.8012698 L29.8107937,22.8012698 Z M29.6584127,24.5638095 C29.5743147,25.062416 29.4150413,25.545374 29.1860317,25.9961905 L32.3453968,27.6215873 C32.751746,26.8292063 33.0057143,26.0266667 33.1580952,25.1987302 L29.6584127,24.5638095 L29.6584127,24.5638095 Z M29.1860317,25.9961905 C28.9579765,26.4379707 28.6613926,26.8408448 28.3073016,27.1898413 L30.8063492,29.7142857 C31.4260317,29.1047619 31.9492063,28.3936508 32.3453968,27.6215873 L29.1860317,25.9961905 L29.1860317,25.9961905 Z M28.3073016,27.1898413 C27.951746,27.5403175 27.5453968,27.8349206 27.0984127,28.0533333 L28.6933333,31.2330159 C29.4727944,30.8404445 30.1858094,30.327965 30.8063492,29.7142857 L28.3073016,27.1898413 L28.3073016,27.1898413 Z M27.0933333,28.0533333 C26.6463492,28.2869841 26.1739683,28.4342857 25.6355556,28.5307937 L26.2552381,32.0355556 C27.1030161,31.8895377 27.9245793,31.6191065 28.6933333,31.2330159 L27.0933333,28.0584127 L27.0933333,28.0533333 Z M25.6355556,28.5307937 C25.0869841,28.632381 24.4977778,28.6679365 23.8425397,28.6831746 L23.9390476,32.2387302 C24.6501587,32.2184127 25.447619,32.1777778 26.2552381,32.0355556 L25.6355556,28.5307937 L25.6355556,28.5307937 Z M23.8679365,28.6831746 C22.5574603,28.6984127 22.191746,28.6984127 21.8260317,28.6984127 L21.8260317,32.2539683 C22.2069841,32.2539683 22.5879365,32.2539683 23.9085714,32.2387302 L23.8679365,28.6831746 L23.8679365,28.6831746 Z M21.8260317,28.6984127 L14.0698413,28.6984127 L14.0698413,32.2539683 L21.8311111,32.2539683 L21.8311111,28.6984127 L21.8260317,28.6984127 Z M14.0647619,28.6984127 L9.77777778,28.6984127 L9.77777778,32.2539683 L14.0647619,32.2539683 L14.0647619,28.6984127 L14.0647619,28.6984127 Z M9.78285714,28.6984127 C8.34031746,28.6984127 8.05079365,28.6933333 7.76126984,28.6831746 L7.6647619,32.2387302 C8.00507937,32.2488889 8.34539683,32.2488889 9.77269841,32.2539683 L9.78285714,28.6984127 L9.78285714,28.6984127 Z M7.76126984,28.6831746 C7.10603175,28.6679365 6.5168254,28.632381 5.97333333,28.5307937 L5.34857143,32.0355556 C6.16126984,32.1777778 6.95365079,32.2184127 7.6647619,32.2387302 L7.76634921,28.6831746 L7.76126984,28.6831746 Z M5.97333333,28.5307937 C5.46497306,28.446805 4.97194957,28.2875995 4.51047619,28.0584127 L2.91047619,31.2330159 C3.67951034,31.6173496 4.50106245,31.8860656 5.34857143,32.0304762 L5.97333333,28.5307937 L5.97333333,28.5307937 Z M4.51047619,28.0584127 C4.06278559,27.8343249 3.65312434,27.54122 3.29650794,27.1898413 L0.797460317,29.7142857 C1.41752301,30.329897 2.13057951,30.8441204 2.91047619,31.2380952 L4.51047619,28.0584127 L4.51047619,28.0584127 Z M3.29650794,27.1898413 C2.94261076,26.840677 2.64605083,26.4378355 2.41777778,25.9961905 L-0.741587302,27.6215873 C-0.341881855,28.3957902 0.177525764,29.1020474 0.797460317,29.7142857 L3.29650794,27.1898413 L3.29650794,27.1898413 Z M2.42285714,25.9961905 C2.19203854,25.5438926 2.03105932,25.0592424 1.94539683,24.5587302 L-1.55428571,25.1987302 C-1.40190476,26.0266667 -1.14793651,26.8292063 -0.741587302,27.6215873 L2.42285714,25.9961905 L2.42285714,25.9961905 Z M1.94539683,24.5587302 C1.84888889,24.0253968 1.81333333,23.4514286 1.79301587,22.8012698 L-1.76253968,22.9028571 C-1.74222222,23.6038095 -1.69650794,24.3961905 -1.55428571,25.1987302 L1.95047619,24.5587302 L1.94539683,24.5587302 Z M1.79301587,22.8012698 L1.78285714,21.9073016 L-1.77269841,21.927619 C-1.77269841,22.247619 -1.77269841,22.5726984 -1.76253968,22.8977778 L1.79301587,22.7961905 L1.79301587,22.8012698 Z M1.78285714,21.9022222 L1.77777778,20.8101587 L-1.77777778,20.8101587 L-1.77777778,21.927619 L1.77777778,21.9022222 L1.78285714,21.9022222 Z M1.77777778,20.8101587 L1.77777778,17.1377778 L-1.77777778,17.1377778 L-1.77777778,20.8101587 L1.77777778,20.8101587 L1.77777778,20.8101587 Z M1.77777778,17.1377778 L1.77777778,13.3384127 L-1.77777778,13.3384127 L-1.77777778,17.1377778 L1.77777778,17.1377778 L1.77777778,17.1377778 Z M1.77777778,13.3384127 L1.77777778,9.66603175 L-1.77777778,9.66603175 L-1.77777778,13.3384127 L1.77777778,13.3384127 L1.77777778,13.3384127 Z M1.77777778,9.66603175 L1.77777778,8.57396825 L-1.77777778,8.54349206 L-1.77777778,9.66603175 L1.77777778,9.66603175 L1.77777778,9.66603175 Z M1.77777778,8.56888889 C1.77777778,8.26412698 1.78793651,7.96952381 1.79301587,7.67492063 L-1.76253968,7.57333333 L-1.77269841,8.54857143 L1.78285714,8.56888889 L1.77777778,8.56888889 Z M1.79301587,7.67492063 C1.81333333,7.0247619 1.84888889,6.45079365 1.94539683,5.91238095 L-1.55428571,5.27746032 C-1.68061837,6.03813721 -1.74854163,6.80736813 -1.75746032,7.5784127 L1.79809524,7.67492063 L1.79301587,7.67492063 Z M1.94539683,5.91746032 C2.03105932,5.41694806 2.19203854,4.93229787 2.42285714,4.48 L-0.741587302,2.85460317 C-1.14793651,3.64698413 -1.40190476,4.44952381 -1.55428571,5.27746032 L1.95047619,5.91746032 L1.94539683,5.91746032 Z M2.42285714,4.48 C2.64974788,4.0403253 2.94458998,3.63920292 3.29650794,3.29142857 L0.797460317,0.756825397 C0.176833153,1.37037927 -0.342626867,2.07842214 -0.741587302,2.85460317 L2.42285714,4.48 L2.42285714,4.48 Z M3.29650794,3.28634921 C3.65206349,2.93587302 4.0584127,2.64634921 4.51047619,2.42285714 L2.91047619,-0.761904762 C2.13044742,-0.368147249 1.41735853,0.146099544 0.797460317,0.761904762 L3.29650794,3.28634921 L3.29650794,3.28634921 Z M4.51047619,2.42285714 C4.96253968,2.18920635 5.42984127,2.04190476 5.97333333,1.94539683 L5.34857143,-1.55936508 C4.51555556,-1.40698413 3.70793651,-1.15809524 2.91047619,-0.756825397 L4.51047619,2.41777778 L4.51047619,2.42285714 Z M5.97333333,1.94539683 C6.5168254,1.84380952 7.10603175,1.80825397 7.76126984,1.79301587 L7.6647619,-1.76253968 C6.95365079,-1.74222222 6.15619048,-1.7015873 5.34857143,-1.55936508 L5.97333333,1.94539683 L5.97333333,1.94539683 Z M7.73587302,1.79301587 C9.04634921,1.77777778 9.41206349,1.77777778 9.77777778,1.77777778 L9.77777778,-1.77777778 C9.3968254,-1.77777778 9.01587302,-1.77777778 7.6952381,-1.76253968 L7.73587302,1.79301587 L7.73587302,1.79301587 Z M9.77777778,1.77777778 L14.0647619,1.77777778 L14.0647619,-1.77777778 L9.77777778,-1.77777778 L9.77777778,1.77777778 L9.77777778,1.77777778 Z M14.0647619,1.77777778 L21.5212698,1.77777778 L21.5212698,-1.77777778 L14.0698413,-1.77777778 L14.0698413,1.77777778 L14.0647619,1.77777778 Z M21.5212698,-1.77777778 L16.9752381,-1.77777778 L16.9752381,1.77777778 L21.5212698,1.77777778 L21.5212698,-1.77777778 L21.5212698,-1.77777778 Z M16.9752381,1.77777778 L21.8260317,1.77777778 L21.8260317,-1.77777778 L16.9752381,-1.77777778 L16.9752381,1.77777778 L16.9752381,1.77777778 Z M21.8209524,1.77777778 C23.2634921,1.77777778 23.5530159,1.78285714 23.8425397,1.79301587 L23.944127,-1.76253968 C23.5987302,-1.77269841 23.2584127,-1.77269841 21.8311111,-1.77777778 L21.8209524,1.77777778 L21.8209524,1.77777778 Z M23.8425397,1.79301587 C24.5028571,1.80825397 25.0869841,1.84380952 25.6355556,1.94539683 L26.2552381,-1.55936508 C25.4893135,-1.68469123 24.7150943,-1.7526052 23.9390476,-1.76253968 L23.8425397,1.79301587 L23.8425397,1.79301587 Z M25.6355556,1.94539683 C26.1739683,2.04190476 26.6463492,2.18920635 27.0933333,2.41777778 L28.6933333,-0.756825397 C27.9242992,-1.14115909 27.1027471,-1.40987509 26.2552381,-1.55428571 L25.6355556,1.94539683 L25.6355556,1.94539683 Z M27.0984127,2.41777778 C27.5443507,2.64224739 27.9522807,2.93533995 28.3073016,3.28634921 L30.8063492,0.761904762 C30.1863413,0.146228921 29.473274,-0.36800229 28.6933333,-0.761904762 L27.0984127,2.41777778 L27.0984127,2.41777778 Z M28.3073016,3.29142857 C28.6628571,3.6368254 28.9574603,4.0431746 29.1860317,4.48 L32.3453968,2.85460317 C31.9466559,2.07828638 31.4271718,1.37021061 30.8063492,0.756825397 L28.3073016,3.29142857 L28.3073016,3.29142857 Z M29.1860317,4.48 C29.4146032,4.92190476 29.5619048,5.38412698 29.6584127,5.91238095 L33.1580952,5.27746032 C33.0057143,4.44952381 32.751746,3.64698413 32.3453968,2.85460317 L29.1860317,4.48 L29.1860317,4.48 Z M29.6584127,5.91238095 C29.76,6.45079365 29.7955556,7.02984127 29.8107937,7.67492063 L33.3663492,7.57333333 C33.3460317,6.87238095 33.3053968,6.08 33.1580952,5.27746032 L29.6584127,5.91238095 L29.6584127,5.91238095 Z M29.8107937,7.67492063 C29.8209524,7.96952381 29.8209524,8.26412698 29.8260317,8.56888889 L33.3815873,8.54857143 L33.3663492,7.5784127 L29.8107937,7.68 L29.8107937,7.67492063 Z M29.8260317,8.56888889 L29.8260317,9.66603175 L33.3815873,9.66603175 L33.3815873,8.54857143 L29.8260317,8.56888889 L29.8260317,8.56888889 Z M29.8260317,9.66603175 L29.8260317,13.3384127 L33.3815873,13.3384127 L33.3815873,9.66603175 L29.8260317,9.66603175 L29.8260317,9.66603175 Z M29.8260317,13.3384127 L29.8260317,17.1377778 L33.3815873,17.1377778 L33.3815873,13.3384127 L29.8260317,13.3384127 L29.8260317,13.3384127 Z M29.8260317,17.1377778 L29.8260317,20.8101587 L33.3815873,20.8101587 L33.3815873,17.1377778 L29.8260317,17.1377778 L29.8260317,17.1377778 Z" id="Shape" fill="url(#linearGradient-3)" mask="url(#mask-2)"></path>
      </g>
      <path d="M12.4342857,13.12 C12.4342857,12.9828571 12.5460317,12.8660317 12.688254,12.8660317 L17.3612698,12.8660317 C17.5034921,12.8660317 17.6152381,12.9828571 17.6152381,13.12 L17.6152381,13.6279365 C17.6152381,13.7681993 17.5015326,13.8819048 17.3612698,13.8819048 L12.688254,13.8819048 C12.5479912,13.8819048 12.4342857,13.7681993 12.4342857,13.6279365 L12.4342857,13.12 L12.4342857,13.12 Z M10.6920635,10.2552381 C10.7290961,10.2212494 10.7469846,10.1711842 10.7398759,10.1214236 C10.7327673,10.071663 10.7015761,10.0286093 10.6565079,10.0063492 L8.8431746,9.04126984 C8.77307089,9.00504789 8.74221637,8.92129991 8.77206349,8.84825397 L10.0215873,5.73968254 C10.0774603,5.59238095 9.89460317,5.46539683 9.77777778,5.57206349 L5.84126984,9.12761905 C5.80458169,9.15872946 5.78473724,9.20533664 5.78773781,9.25334575 C5.79073838,9.30135487 5.81623162,9.34512843 5.85650794,9.37142857 L7.60380952,10.5549206 C7.6631149,10.5951516 7.68637336,10.6712702 7.65968254,10.7377778 L6.52190476,13.6380952 C6.46095238,13.7904762 6.64380952,13.912381 6.76571429,13.8057143 L10.6920635,10.2501587 L10.6920635,10.2552381 Z" id="Shape" fill="#FFFFFF"></path>
    </g>
  </g>
</svg>