<?xml version="1.0" encoding="UTF-8"?>
<svg width="2076px" height="2076px" viewBox="0 0 2076 2076" version="1.1" xmlns="http://www.w3.org/2000/svg" xmlns:xlink="http://www.w3.org/1999/xlink">
    <!-- Generator: Sketch 3.8.3 (29802) - http://www.bohemiancoding.com/sketch -->
    <title>Group</title>
    <desc>Created with Sketch.</desc>
    <defs></defs>
    <g id="Page-1" stroke="none" stroke-width="1" fill="none" fill-rule="evenodd">
        <g id="Group">
            <path d="M1858.7,403.5 C1508.4,-49.9 857,-133.5 403.6,216.8 C-49.7,567.1 -133.3,1218.5 217,1671.8 C567.2,2125.2 1218.6,2208.9 1672,1858.6 C2125.4,1508.4 2209,856.8 1858.7,403.5 L1858.7,403.5 Z" id="Shape" fill="#FF6C37"></path>
            <path d="M1241.8,687.6 C1167.1,721.7 1045.5,824.8 848.2,1021.3 L904.3,1077.4 L923,1096.2 L1304.3,714.9 C1316.2,703 1331.3,697 1346.8,694.3 C1318.5,673.1 1291.3,665 1241.8,687.6 M1410,833.1 L1010.9,1183.8 C1046.4,1219.4 1065.9,1238.8 1075.9,1248.9 C1234,1098.9 1384.5,945.9 1410,833.1 M728.3,1143 C728.9,1144 729.5,1143.9 730.1,1143.8 L891.8,1108.9 L826.3,1043.5 L728.5,1141.2 C728.2,1141.4 727.7,1141.8 728.3,1143 M1461.4,601.1 L1596.7,465.8 C1569.4,444.5 1536.3,434 1503.2,434 C1464.1,434 1425,448.8 1395.6,478.3 C1366.8,507.1 1351,545.3 1351,586 C1351,626.7 1366.8,665 1395.6,693.8 C1439.8,738.1 1506.7,750.8 1564.1,725.7 L1461.5,623.2 C1458.6,620.3 1456.9,616.3 1456.9,612.2 C1456.8,608 1458.5,604.1 1461.4,601.1" id="Shape" fill="#FFFFFF"></path>
            <path d="M1606.5,636.4 C1603.8,636.4 1601.1,635.4 1598.8,633.6 C1593.8,629.4 1593,621.8 1597.3,616.7 C1606.4,605.7 1608.1,590.4 1601.6,577.7 C1598.7,571.8 1601.1,564.6 1607,561.6 C1612.9,558.7 1620.1,561.1 1623.1,567 C1633.7,588.2 1630.8,613.8 1615.6,632 C1613.4,634.8 1610,636.4 1606.5,636.4 L1606.5,636.4 Z M1619.3,487.1 L1494.4,612.2 L1592,709.8 C1598.8,705 1605.1,699.6 1611.1,693.8 C1639.9,665 1655.7,626.7 1655.7,586 C1655.7,549.4 1642.9,514.8 1619.3,487.1 L1619.3,487.1 Z M1326.3,736.8 L946.1,1117.1 L989.8,1160.8 L1392.4,807.2 C1402.5,798.3 1408.3,785.9 1408.7,772.5 C1409.1,759 1404.1,746.3 1394.6,736.7 C1375.8,718 1345.2,718 1326.3,736.8 L1326.3,736.8 Z M616.9,1547.9 C616.9,1547.9 617,1547.9 617.1,1547.8 C798.4,1456.9 944.9,1363.4 1052.7,1269.8 L991.2,1208.4 L829.6,1233.5 L509.6,1553.5 L612,1655.9 C614.5,1658.3 617,1657.7 618.7,1656.9 C620.4,1655.9 622.2,1654.1 621.5,1650.7 L604,1575.8 C601.4,1564.6 606.7,1553.2 616.9,1547.9 L616.9,1547.9 Z M579.8,1667.7 L487.6,1575.5 L409.4,1653.7 C409.1,1653.9 408.8,1654.3 409.1,1655.1 C409.4,1656 410,1656.1 410.3,1656.1 L579.8,1667.7 Z M871,1192.2 L871.3,1192.2 C871.6,1192.2 872.2,1192.3 872.5,1192.3 L963.4,1180.5 L923.2,1140.1 L871,1192.2 Z" id="Shape" fill="#FFFFFF"></path>
            <path d="M1623.2,567 C1620.3,561.1 1613,558.6 1607,561.6 C1601.1,564.5 1598.7,571.7 1601.6,577.7 C1608,590.4 1606.3,605.7 1597.2,616.7 C1592.9,621.8 1593.7,629.4 1598.8,633.6 C1601,635.4 1603.7,636.4 1606.5,636.4 C1610,636.4 1613.3,634.8 1615.7,632 C1630.9,613.8 1633.8,588.2 1623.2,567" id="Shape" fill="#FF6C37"></path>
        </g>
    </g>
</svg>