<?xml version="1.0" encoding="UTF-8"?>
<svg width="242px" height="242px" viewBox="0 0 242 242" version="1.1" xmlns="http://www.w3.org/2000/svg" xmlns:xlink="http://www.w3.org/1999/xlink">
    <!-- Generator: Sketch 3.8.3 (29802) - http://www.bohemiancoding.com/sketch -->
    <title>Group</title>
    <desc>Created with Sketch.</desc>
    <defs></defs>
    <g id="Page-1" stroke="none" stroke-width="1" fill="none" fill-rule="evenodd">
        <g id="Group">
            <circle id="Oval-1" fill="#D75893" cx="121" cy="121" r="121"></circle>
            <g id="sassmeister" transform="translate(23.000000, 86.000000)" fill="#FFFFFF">
                <path d="M59.9568182,7.78181818 C61.9159091,11.4522727 59.8704545,18.6454545 57.5863636,21.6159091 C53.4795455,26.9522727 50.4886364,30.0909091 42.5659091,32.2886364 C28.2022727,36.2727273 23.5545455,30.2545455 22.8022727,28.9295455 C22.2181818,27.9 22.3318182,26.7818182 23,26.9522727 C23.6681818,27.1227273 25.4659091,29.7181818 29.7204545,30.3113636 C33.9727273,30.9045455 43.375,28.5909091 48.8909091,23.9863636 C58.0818182,16.3159091 55.3318182,10.7727273 55.0181818,9.95454545 C54.1477273,7.68636364 48.7977273,5.00909091 40.1954545,6.39545455 C31.5931818,7.78181818 27.925,10.2545455 24.7795455,11.7340909 C9.56136364,18.8954545 6.79545455,28.3340909 7.19090909,30.9045455 C7.73636364,34.4545455 9.21363636,37.4272727 12.3454545,39.6022727 C15.4772727,41.7772727 22.4159091,48.0931818 22.4068182,48.1 C22.4568182,48.1159091 30.1681818,43.8954545 31.6818182,43.1590909 C31.6818182,43.1590909 34.8204545,39.2068182 37.625,37.8227273 C42.9045455,35.6295455 44.1977273,38.8113636 43.7522727,43.1590909 C43.7886364,43.1090909 44.9590909,42.2954545 46.0227273,42.9272727 C47.5022727,43.8068182 46.1204545,46.7159091 45.8909091,47.5022727 C45.7159091,48.0954545 44.5431818,52.2704545 44.3454545,54.1931818 C44.1477273,56.1159091 44.2522727,56.7295455 44.3454545,56.9931818 C44.3727273,57.0204545 47.0090909,52.4 49.1772727,47.5022727 C51.9545455,41.2295455 54.4136364,34.3227273 54.425,34.2659091 C54.6795455,33.6045455 61.5386364,32.1068182 59.9590909,35.4522727 C59.4431818,37.1045455 58.9636364,37.9613636 59.1681818,41.1840909 C59.3727273,44.4068182 60.6977273,45.6704545 60.75,45.7295455 C60.7772727,45.6704545 64.9931818,38.8136364 66.0863636,36.0454545 C66.4477273,35.1295455 67.4659091,31.4272727 67.4704545,31.3022727 C67.6704545,31.0318182 68.9477273,30.4681818 70.6795455,30.4681818 C72.4113636,30.4681818 73.1181818,30.9363636 73.2022727,31.3022727 C73.3886364,31.4818182 72.5772727,33.9681818 72.4113636,34.4636364 C72.1295455,35.7681818 71.5386364,37.8227273 73.4,42.3681818 C74.5045455,41.0681818 80.3795455,33.3318182 86.6409091,34.2659091 C90.9886364,34.9136364 92.5363636,38.5886364 92.5704545,38.8113636 C94.3454545,38.9204545 95.6181818,39.6840909 96.325,41.1818182 C99.0681818,39.5454545 101.288636,38.8113636 103.045455,38.8113636 C104.356818,38.8113636 107.277273,39.3318182 107.586364,42.7840909 C107.895455,46.2363636 107.788636,53.2386364 107.788636,53.2386364 L110.356818,53.2386364 C110.775,53.2386364 110.977273,55.5340909 110.159091,55.4136364 L102.65,55.4136364 C101.984091,55.4136364 102.268182,53.5840909 102.65,53.2386364 C103.031818,52.8931818 104.627273,53.2386364 104.627273,52.4477273 C104.627273,52.4477273 104.825,44.8840909 104.356818,43.5636364 C103.888636,42.2431818 103.275,41.5795455 101.861364,41.5795455 C100.445455,41.5795455 99.0818182,42.3318182 97.3159091,43.7545455 L97.3159091,53.2409091 L99.8840909,53.2409091 C100.209091,53.2409091 100.652273,55.2659091 99.6863636,55.4159091 L92.1772727,55.4159091 C91.7113636,55.4159091 91.7363636,53.4931818 92.1772727,53.2409091 C92.6181818,52.9886364 94.1204545,52.9590909 94.1545455,52.45 C94.1545455,52.45 94.2931818,44.7431818 93.7590909,43.3590909 C93.225,41.975 92.5727273,41.5795455 91.3886364,41.5795455 C90.2022727,41.5795455 88.6090909,42.3318182 86.8431818,43.7545455 L86.8431818,53.2409091 L89.6090909,53.2409091 C90.2431818,53.2409091 90.0636364,55.5681818 89.4113636,55.4159091 L81.1113636,55.4159091 C80.1272727,55.4159091 80.7159091,53.4340909 80.9727273,53.2409091 C81.0409091,53.0840909 83.8772727,53.2409091 83.6795455,52.45 L83.6795455,41.5795455 L80.7159091,41.5795455 C78.9022727,39.9 81.1113636,38.8136364 82.8909091,38.8136364 C84.6704545,38.8136364 85.975,38.6159091 86.25,39.0113636 C86.525,39.4068182 86.4477273,40.7909091 86.4477273,40.7909091 C88.1340909,39.9090909 89.6318182,39.2818182 90.9931818,39.0113636 C90.4840909,38.0409091 89.0090909,36.6409091 85.8545455,36.6409091 C83.0954545,36.6409091 80.5181818,37.3113636 74.5886364,44.3477273 C74.8909091,45.1068182 76.7113636,47.6159091 76.1295455,51.0386364 C75.5477273,54.4613636 70.4363636,57.3931818 69.9590909,57.3931818 C69.4818182,57.3931818 67.1886364,58.9204545 65.6931818,57.3931818 C64.1977273,55.8659091 65.6,52.7795455 65.9454545,52.0840909 C66.2886364,51.3886364 70.2113636,45.5522727 70.2386364,45.5340909 C69.3522727,44.3477273 68.1818182,39.7090909 67.8681818,38.6181818 C67.8909091,38.6227273 66.5477273,41.275 65.1022727,43.7568182 C63.6659091,46.2204545 62.1272727,48.5181818 62.1386364,48.5 C62.1181818,48.5818182 63.6954545,52.0568182 62.9295455,55.0227273 C61.9613636,58.1840909 58.3863636,60.5204545 54.2340909,61.15 C50.0818182,61.7795455 50.7863636,59.2181818 51.0727273,58.7795455 C51.2477273,58.25 52.3318182,57.0113636 54.6568182,54.2 C57.5954545,50.6477273 57.8909091,50.0022727 57.7931818,49.8863636 C57.8909091,49.9295455 57.5454545,49.3590909 57.2,48.7 C55.8295455,46.0863636 55.0590909,42.1840909 54.8295455,41.5863636 C54.875,41.5318182 49.0227273,55.2954545 46.7272727,58.7795455 C43.9159091,63.0454545 43.2409091,63.0136364 41.3295455,62.2909091 C39.4181818,61.5681818 40.175,54.8 40.2045455,54.8272727 C40.1045455,54.8090909 39.8318182,55.3727273 39.8090909,55.4204545 C36.7204545,62.5340909 36.0636364,63.9954545 33.0340909,63.875 C30.0045455,63.7545455 28.2136364,57.3977273 28.5454545,53.2477273 C28.7477273,50.7022727 29.7681818,47.4068182 29.7318182,47.3181818 C29.6590909,47.4068182 24.2386364,50.5363636 24.1977273,50.4795455 C24.2227273,50.5772727 24.3409091,50.7181818 24.3954545,50.875 C27.0954545,58.6204545 24.1977273,64.0795455 21.7636364,67.05 C18.3409091,71.225 12.8454545,72.8113636 10.9568182,72.8113636 C9.06818182,72.8113636 6.66136364,72.5704545 4.86136364,71.0045455 C3.05909091,69.4386364 3.06818182,66.1431818 3.25,64.7090909 C3.50909091,63.4159091 4.57727273,59.025 10.5613636,55.025 C12.6613636,53.6227273 18.9840909,50.0568182 19.0590909,50.0840909 C18.9840909,49.9795455 18.9363636,49.9227273 18.8613636,49.8863636 C18.5318182,49.5704545 17.9386364,49.1 17.4772727,48.7 C16.5772727,48.0795455 8.07954545,42.0454545 6.21136364,40.4 C-6.51363636,29.1840909 1.32727273,15.7840909 25.975,4.43181818 C31.5409091,1.86818182 53.0590909,-5.15909091 59.9681818,7.79090909 L59.9568182,7.78181818 Z M18.0590909,53.8295455 C12.0977273,58.0636364 8.96590909,60.1613636 8.96590909,65.6136364 C8.96590909,67.7977273 13.0204545,69.6431818 18.0590909,64.0272727 C23.5727273,57.8818182 21.1386364,52.0590909 21.0227273,52.05 C21.0590909,52.0431818 18.7659091,53.325 18.0590909,53.8295455 L18.0590909,53.8295455 Z M56.4340909,55.8272727 C55.8090909,56.5227273 54.4159091,58.1204545 54.4227273,58.1772727 C54.55,58.1840909 54.8318182,58.3636364 55.8068182,57.7818182 C56.8954545,57.1318182 58.3068182,55.7340909 58.9681818,54.6204545 C59.2318182,53.9159091 59.3886364,53.25 59.3636364,52.4454545 C59.2704545,52.4454545 57.2045455,54.9681818 56.4340909,55.8272727 L56.4340909,55.8272727 Z M69.5090909,51.2 C67.7204545,53.7681818 68.0522727,55.0909091 68.275,55.1954545 C68.4977273,55.3 72.5159091,53.6704545 72.275,49.6909091 C72.25,49.2886364 71.9204545,48.2954545 71.8159091,48.2954545 C71.8159091,48.2954545 71.2977273,48.6318182 69.5090909,51.2 L69.5090909,51.2 Z M34.6590909,46.9136364 C33.8113636,48.7727273 33.1613636,50.975 33.275,55.2136364 C33.3181818,56.7909091 33.8363636,57.7159091 34.2636364,57.9795455 C35.7068182,58.875 40.7272727,45.0295455 41.1159091,42.2613636 C41.3659091,40.4840909 40.7795455,40.5840909 40.3886364,40.5863636 C40.0795455,40.5818182 37.5386364,40.5863636 34.6568182,46.9113636 L34.6590909,46.9136364 Z M112.525,47.1113636 C112.536364,44.4931818 113.765909,38.9909091 120.627273,38.8113636 C122.622727,38.8113636 126.95,39.4931818 126.952273,46.1227273 C126.952273,46.7022727 126.45,47.9795455 124.581818,48.1 L115.886364,48.1 C116.068182,50.6 117.095455,53.4363636 120.036364,53.2386364 C122.977273,53.0409091 124.861364,51.425 125.372727,51.2613636 C125.884091,51.1 127.254545,52.3522727 126.559091,53.4363636 C124.561364,55.0340909 122.352273,55.8068182 119.838636,55.8068182 C113.515909,55.8068182 112.515909,49.7818182 112.527273,47.1113636 L112.525,47.1113636 Z M123.593182,45.7272727 C123.604545,42.8295455 122.540909,41.3795455 120.431818,41.3795455 C117.006818,41.3795455 115.963636,44.3545455 115.886364,45.7272727 L123.593182,45.7272727 L123.593182,45.7272727 Z M131.3,32.4863636 C131.3,29.6159091 135.988636,29.2045455 135.779545,32.4863636 C135.570455,35.7681818 131.3,34.9113636 131.3,32.4863636 L131.3,32.4863636 Z M129.325,41.5772727 C128.338636,41.4386364 128.761364,39.5568182 129.127273,39.4022727 C130.140909,39.0340909 131.988636,38.8318182 134.661364,38.8090909 C135.188636,38.8090909 135.429545,39.275 135.452273,40.1931818 L135.452273,53.2363636 L138.218182,53.2363636 C138.831818,53.5454545 138.531818,55.1681818 138.415909,55.4113636 C138.206818,55.5204545 138.063636,55.6090909 138.020455,55.6090909 L129.720455,55.6090909 C129.127273,55.4113636 129.127273,54.5363636 129.325,53.9568182 C129.522727,53.3772727 130.115909,53.2386364 130.115909,53.2386364 C132.290909,53.3590909 132.281818,52.7136364 132.290909,52.6454545 L132.290909,41.5772727 L129.327273,41.5772727 L129.325,41.5772727 Z M146.518182,53.2363636 C149.877273,52.9954545 149.877273,51.3227273 149.877273,51.0613636 C149.879545,48.7795455 145.722727,48.4954545 143.552273,47.5045455 C141.381818,46.5136364 140.390909,45.1704545 140.390909,43.3545455 C140.390909,41.575 141.379545,39.1522727 146.320455,38.8090909 C148.175,38.6795455 152.606818,39.3159091 152.645455,42.1681818 C152.434091,44.1409091 151.002273,44.3477273 150.275,44.3431818 C147.627273,44.0272727 148.145455,41.7636364 148.297727,41.1818182 L146.518182,41.1818182 C144.768182,41.1818182 144.172727,41.5068182 143.554545,42.9931818 C143.177273,45.2886364 146.470455,45.4727273 148.420455,46.2681818 C149.6,46.7477273 152.843182,47.7295455 152.843182,51.0659091 C152.843182,54.4022727 149.879545,55.8090909 146.913636,55.8090909 C143.95,55.8090909 143.843182,55.6181818 142.763636,55.2159091 C138.536364,53.6386364 140.193182,50.1431818 142.368182,50.275 C144.543182,50.4068182 144.727273,51.7454545 144.738636,52.2522727 C144.727273,52.8022727 144.7,53.1431818 144.738636,53.2409091 L146.518182,53.2409091 L146.518182,53.2363636 Z M154.620455,41.5772727 C154.620455,39.9318182 154.820455,39.0931818 155.213636,39.0090909 C155.213636,39.0090909 157.979545,39.2022727 157.979545,38.4159091 L158.770455,34.8590909 C158.904545,34.1704545 159.609091,33.8704545 160.945455,33.8704545 L160.945455,39.0090909 L165.293182,39.0090909 C165.888636,39.0090909 165.895455,41.5772727 164.897727,41.5772727 L160.945455,41.5772727 L160.945455,51.2613636 C160.890909,52.4954545 161.131818,52.8431818 161.934091,53.0409091 C162.736364,53.2386364 163.911364,52.6454545 164.502273,52.6454545 C165.095455,52.6454545 165.815909,54.0590909 165.095455,54.6227273 C163.661364,55.4363636 162.325,55.8090909 161.143182,55.8090909 C158.829545,55.8090909 157.715909,54.2977273 157.784091,51.2636364 L157.784091,41.5795455 L154.622727,41.5795455 L154.620455,41.5772727 Z M196.320455,39.0068182 C198.225,39.7840909 198.343182,42.9477273 196.111364,43.4431818 C193.879545,43.9386364 193.377273,41.975 193.356818,41.3795455 C191.690909,42.3 190.393182,44.7386364 190.393182,44.7386364 L190.393182,53.2363636 L194.345455,53.2363636 C194.763636,53.0954545 195.136364,55.4681818 194.147727,55.6068182 L184.463636,55.6068182 C183.788636,55.4090909 184.068182,53.3477273 184.743182,53.3477273 C186.995455,53.3477273 187.229545,53.025 187.229545,52.6409091 L187.229545,41.7704545 L184.265909,41.7704545 C183.313636,41.5545455 183.702273,39.4 184.068182,39.4 C184.677273,39.2068182 189.997727,38.2568182 189.997727,39.1818182 C189.997727,40.1068182 189.984091,41.3295455 189.997727,41.375 C191.886364,39.6931818 194.418182,38.225 196.322727,39.0045455 L196.320455,39.0068182 Z M167.465909,47.1113636 C167.477273,44.4931818 168.706818,38.9909091 175.568182,38.8113636 C177.563636,38.8113636 181.890909,39.4931818 181.893182,46.1227273 C181.893182,46.7022727 181.390909,47.9795455 179.522727,48.1 L170.827273,48.1 C171.009091,50.6 172.036364,53.4363636 174.977273,53.2386364 C177.918182,53.0409091 179.802273,51.425 180.313636,51.2613636 C180.825,51.1 182.195455,52.3522727 181.5,53.4363636 C179.502273,55.0340909 177.293182,55.8068182 174.779545,55.8068182 C168.456818,55.8068182 167.456818,49.7818182 167.468182,47.1113636 L167.465909,47.1113636 Z M178.534091,45.7272727 C178.545455,42.8295455 177.481818,41.3795455 175.372727,41.3795455 C171.947727,41.3795455 170.904545,44.3545455 170.827273,45.7272727 L178.534091,45.7272727 L178.534091,45.7272727 Z" id="Shape"></path>
            </g>
        </g>
    </g>
</svg>