<svg xmlns="http://www.w3.org/2000/svg" viewBox="0 0 155 34" fill="#e1567c">
  <path d="M95.83 22L84.44 7.21h-2.82v19.85h2.93V11.87l11.93 15.19H99V7.21h-3V22zM67 18.27h10.3v-2.6H67v-6h11.6V7.1H64.05V27h14.64v-2.6H67zm-12-2.49c-4-1-5.1-1.74-5.1-3.58s1.52-2.82 3.69-2.82A9.74 9.74 0 0 1 59 11.33l1.52-2.17a10.8 10.8 0 0 0-6.94-2.39A5.91 5.91 0 0 0 46.91 12v.43c0 3.26 2.38 4.78 6.62 5.86 3.68.87 4.77 1.63 4.77 3.47s-1.52 2.93-3.91 2.93A9.35 9.35 0 0 1 48 22.18l-1.73 2.06a11.81 11.81 0 0 0 8.13 2.93c4.23 0 6.94-2.39 6.94-5.86-.11-2.93-1.96-4.56-6.4-5.53zm96.21-8.57l-6 9.33-6-9.33h-3.37l7.81 11.93V27h2.93v-7.86l7.82-11.93zM101 9.81h6.5V27h2.93V9.81H117V7.1h-16zm29.72 9.44a5.86 5.86 0 0 0 4.77-6c0-3.79-2.82-6.18-7.27-6.18h-8.89V27h2.93v-7.21h5l5 7.16h3.47l-5.43-7.59zm-8.42-1.95V9.81h5.53c2.93 0 4.55 1.3 4.55 3.69s-1.73 3.8-4.55 3.8z"></path>
  <path fill="currentColor" d="M22.39 1.78a3.55 3.55 0 0 0-4.88-1.3 3.85 3.85 0 0 0-1.3 1.3l-5 8.68 1.3.76a24.5 24.5 0 0 1 12.26 20H21.2a21.14 21.14 0 0 0-10.52-16.85l-1.3-.76-4.78 8 1.31.76a11.83 11.83 0 0 1 5.74 8.68h-8a.61.61 0 0 1-.65-.52.4.4 0 0 1 .11-.33l2.27-3.9a7.88 7.88 0 0 0-2.6-1.52l-2.3 3.9a3.57 3.57 0 0 0 1.3 4.89 3.26 3.26 0 0 0 1.74.43h11.17v-1.52a15 15 0 0 0-6.07-11.93l1.73-3a18.33 18.33 0 0 1 7.92 15V34h9.55v-1.52A28 28 0 0 0 15.23 9.27l3.58-6.18a.68.68 0 0 1 .87-.22c.11 0 .11.11.22.22l15.62 27a.61.61 0 0 1-.22.76c-.11 0-.22.11-.32.11h-3.8v2.93h3.69a3.62 3.62 0 0 0 3.58-3.58 3.13 3.13 0 0 0-.45-1.73z"></path>
</svg>
