<?xml version="1.0" encoding="UTF-8"?>
<svg width="126px" height="125px" viewBox="0 0 126 125" version="1.1" xmlns="http://www.w3.org/2000/svg" xmlns:xlink="http://www.w3.org/1999/xlink">
    <!-- Generator: Sketch 3.8.3 (29802) - http://www.bohemiancoding.com/sketch -->
    <title>amplitude-logo-vector</title>
    <desc>Created with Sketch.</desc>
    <defs></defs>
    <g id="Page-1" stroke="none" stroke-width="1" fill="none" fill-rule="evenodd">
        <g id="amplitude-logo-vector" fill="#007FD2">
            <path d="M55.8,28.2 C55.5,27.7 55,27.5 54.6,27.5 C54.3,27.5 54,27.6 53.7,27.8 C50.4,30.4 45.8,41.5 42.1,56.1 L45.4,56.1 C51.9,56.2 58.7,56.3 65.3,56.4 C63.5,49.7 61.9,44 60.4,39.4 C58.2,32.6 56.7,29.5 55.8,28.2 L55.8,28.2 Z" id="Shape"></path>
            <path d="M63.2,0 C28.7,0 0.7,28 0.7,62.5 C0.7,97 28.7,125 63.2,125 C97.7,125 125.7,97 125.7,62.5 C125.7,28 97.7,0 63.2,0 L63.2,0 Z M108.1,63.7 L108.1,63.7 C108,63.8 107.9,63.8 107.9,63.9 L107.8,63.9 L107.7,64 L107.6,64.1 C107.1,64.3 106.6,64.5 106.1,64.5 L76.4,64.5 C76.6,65.5 76.9,66.6 77.2,67.8 C78.8,74.8 83.1,93.5 87.7,93.5 L87.9,93.5 C91.5,93.5 93.3,88.3 97.3,77 L97.3,76.9 C97.9,75.1 98.7,73 99.5,70.9 L99.7,70.3 C100,69.6 100.8,69.1 101.5,69.4 C102.2,69.7 102.7,70.5 102.4,71.2 L102.4,71.2 L102.2,71.8 C101.8,73.1 101.3,75 100.8,77.1 C98.4,87 94.8,101.9 85.6,101.9 L85.5,101.9 C79.5,101.9 76,92.3 74.4,88.2 C71.5,80.6 69.4,72.5 67.3,64.6 L40.2,64.6 L34.5,82.7 L34.4,82.6 C33.5,83.9 31.8,84.3 30.4,83.5 C29.6,83 29.1,82.1 29.1,81.1 L29.1,81 L29.4,79 C30.2,74.3 31.1,69.5 32.2,64.6 L20.8,64.6 L20.8,64.6 C18.7,64.3 17.1,62.5 17.1,60.3 C17.1,58.2 18.6,56.4 20.6,56 C21,56 21.5,55.9 21.9,55.9 L22.5,55.9 C26.1,56 30,56 34.3,56.1 C40.3,31.7 47.3,19.3 55,19.3 C63.3,19.3 69.4,38.2 74.3,56.6 L74.3,56.7 C84.4,56.9 95.2,57.2 105.6,58 L106,58 L106.5,58 L106.6,58 C108.4,58.4 109.6,60.1 109.2,61.9 C109.2,62.5 108.7,63.2 108.1,63.7 L108.1,63.7 Z" id="Shape"></path>
        </g>
    </g>
</svg>