<?xml version="1.0" encoding="utf-8"?>
<!-- Generator: Adobe Illustrator 19.2.1, SVG Export Plug-In . SVG Version: 6.00 Build 0)  -->
<svg version="1.1" id="layer" xmlns="http://www.w3.org/2000/svg" xmlns:xlink="http://www.w3.org/1999/xlink" x="0px" y="0px"
	 viewBox="0 0 652 652" style="enable-background:new 0 0 652 652;" xml:space="preserve">
<style type="text/css">
	.st0{fill:#007FD2;}
</style>
<path class="st0" d="M75.8,287.2c-0.3-0.5-0.8-0.7-1.2-0.7c-0.3,0-0.6,0.1-0.9,0.3c-3.3,2.6-7.9,13.7-11.6,28.3l3.3,0
	c6.5,0.1,13.3,0.2,19.9,0.3c-1.8-6.7-3.4-12.4-4.9-17C78.2,291.6,76.7,288.5,75.8,287.2z"/>
<path class="st0" d="M83.2,259c-34.5,0-62.5,28-62.5,62.5s28,62.5,62.5,62.5s62.5-28,62.5-62.5S117.7,259,83.2,259z M128.1,322.7
	L128.1,322.7c-0.1,0.1-0.2,0.1-0.2,0.2l-0.1,0l-0.1,0.1l-0.1,0.1c-0.5,0.2-1,0.4-1.5,0.4H96.4c0.2,1,0.5,2.1,0.8,3.3
	c1.6,7,5.9,25.7,10.5,25.7h0.2c3.6,0,5.4-5.2,9.4-16.5l0-0.1c0.6-1.8,1.4-3.9,2.2-6l0.2-0.6c0.3-0.7,1.1-1.2,1.8-0.9
	c0.7,0.3,1.2,1.1,0.9,1.8l0,0l-0.2,0.6c-0.4,1.3-0.9,3.2-1.4,5.3c-2.4,9.9-6,24.8-15.2,24.8h-0.1c-6,0-9.5-9.6-11.1-13.7
	c-2.9-7.6-5-15.7-7.1-23.6H60.2l-5.7,18.1l-0.1-0.1c-0.9,1.3-2.6,1.7-4,0.9c-0.8-0.5-1.3-1.4-1.3-2.4v-0.1l0.3-2
	c0.8-4.7,1.7-9.5,2.8-14.4H40.8l0,0c-2.1-0.3-3.7-2.1-3.7-4.3c0-2.1,1.5-3.9,3.5-4.3c0.4,0,0.9-0.1,1.3-0.1h0.6
	c3.6,0.1,7.5,0.1,11.8,0.2c6-24.4,13-36.8,20.7-36.8c8.3,0,14.4,18.9,19.3,37.3l0,0.1c10.1,0.2,20.9,0.5,31.3,1.3l0.4,0
	c0.2,0,0.3,0,0.5,0h0.1c1.8,0.4,3,2.1,2.6,3.9C129.2,321.5,128.7,322.2,128.1,322.7z M180.4,337.2l-5,12.2h-14.4l27.4-64h12.7
	l27.3,64h-14.3l-5-12.2H180.4z M194.7,301.7l-9.3,23.3h18.9L194.7,301.7z M309.6,324.9v24.6h-13V326c0-7.1-3.5-10.9-9.5-10.9
	c-2.7,0-5.7,1.2-8.4,5c0.2,1.6,0.3,3.2,0.4,4.9v24.6h-13V326c0-7.1-3.5-10.9-9.6-10.9c-2.5,0-5.3,1.5-7.9,5v29.4h-13v-44.8h13v2.7
	c2.8-2.6,5.8-4.1,11-4.1c5.7,0,10.8,2.2,14.3,6.4c4.8-4.4,9.3-6.4,16.3-6.4C301,303.3,309.6,311.8,309.6,324.9z M366.7,327.1
	c0,13-9.9,23.3-22.3,23.3c-5,0-9.3-1.3-12.7-3.6V371h-13v-66.4h13v2.6c3.5-2.2,7.7-3.6,12.7-3.6
	C356.8,303.7,366.7,313.9,366.7,327.1z M353.9,327.1c0-6.6-4.9-12.4-11.6-12.4c-3.8,0-7.7,1.3-10.6,5.2v14.3
	c2.9,3.8,6.7,5.1,10.6,5.1C349.1,339.4,353.9,333.7,353.9,327.1L353.9,327.1z M387,349.5h-13v-66.4h13V349.5L387,349.5z
	 M398.7,288.9c0-4.4,3.5-7.7,7.9-7.7c4.3,0,7.8,3.3,7.8,7.7c0,4.3-3.5,7.5-7.8,7.5C402.2,296.3,398.7,293.2,398.7,288.9z
	 M413.1,304.7v44.8h-13v-44.8H413.1z M460.3,348.8c-5.4,1.7-7.9,2.1-12.1,2.1c-10.8,0-18-7.7-18-19.3v-16h-9.4v-10.9h9.4v-16h12.9
	v16h16.2v10.9h-16.2v15.9c0,5,3.1,7.4,7.9,7.4c2.4,0,5-0.6,7.6-1.2L460.3,348.8z M512.5,349.5h-13v-3.2c-3.6,2.9-7.8,4.6-12.8,4.6
	c-11.8,0-19.6-8.5-19.6-21.5v-24.7h13v23.5c0,7.1,3.6,10.9,9.6,10.9c3.3,0,6.8-2,9.8-5.6v-28.8h13L512.5,349.5L512.5,349.5z
	 M567.7,349.5h-13v-2.6c-3.5,2.2-7.7,3.6-12.7,3.6c-12.3,0-22.3-10.2-22.3-23.4c0-13,10-23.3,22.3-23.3c5,0,9.3,1.3,12.7,3.6v-24.2
	h13V349.5L567.7,349.5z M554.7,334.2v-14.3c-2.9-3.8-6.7-5.1-10.6-5.1c-6.8,0-11.6,5.7-11.6,12.2c0,6.6,4.8,12.4,11.6,12.4
	C547.9,339.4,551.8,338.1,554.7,334.2L554.7,334.2z M620.4,330.4h-33c1,5.2,4.5,9.3,11.6,9.3c3.6,0,6.2-1.1,7.6-3.4h13.6
	c-2.4,8.6-10.8,14.5-21.4,14.5c-14.4,0-24.1-10.4-24.1-23.7c0-13.8,9.6-23.9,23.7-23.9c12.8,0,22.3,9.1,22.3,22.9
	C620.7,327.6,620.6,329,620.4,330.4L620.4,330.4z M587.5,322.7h20.3c-0.8-5.6-4.1-8.7-9.3-8.7C592.2,314,588.7,317.7,587.5,322.7z"
	/>
</svg>
