<?xml version="1.0" encoding="UTF-8"?>
<svg width="256px" height="330px" viewBox="0 0 256 330" version="1.1" xmlns="http://www.w3.org/2000/svg" xmlns:xlink="http://www.w3.org/1999/xlink">
    <!-- Generator: Sketch 3.8.3 (29802) - http://www.bohemiancoding.com/sketch -->
    <title>ror</title>
    <desc>Created with Sketch.</desc>
    <defs>
        <linearGradient x1="35.204%" y1="52.8731398%" x2="101.159%" y2="50%" id="linearGradient-1">
            <stop stop-color="#FFFFFF" offset="0%"></stop>
            <stop stop-color="#C0815E" offset="100%"></stop>
        </linearGradient>
        <radialGradient cx="0%" cy="0%" fx="0%" fy="0%" r="50.521%" id="radialGradient-2">
            <stop stop-color="#FFFFFF" offset="0%"></stop>
            <stop stop-color="#A94436" offset="100%"></stop>
        </radialGradient>
    </defs>
    <g id="Page-1" stroke="none" stroke-width="1" fill="none" fill-rule="evenodd">
        <g id="ror" transform="translate(-85.000000, -48.000000)">
            <rect id="Rectangle-1" x="0" y="0" width="425" height="425"></rect>
            <g id="Group-2" transform="translate(85.000000, 48.000000)">
                <path d="M4.096,325.463 C4.096,325.463 4.593,247.479 4.593,168.203 C4.593,14.654 -8.346,3.217 60.55,3.217 L252.32,3.217 L252.32,224.7 C252.32,297.61 265.949,326.172 189.326,326.172 C112.704,326.172 4.097,325.464 4.097,325.464 L4.096,325.463 Z" id="Shape" fill="#A62C39"></path>
                <path d="M162.205,32.183 C162.205,32.183 174.493,34.641 185.143,52.663 C195.793,70.686 252.319,210.773 252.319,210.773 L252.319,96.9 L199.888,11.703 L214.635,29.726 L242.488,6.786 L206.443,4.33 L162.205,32.183 L162.205,32.183 Z" id="Shape" fill="url(#linearGradient-1)"></path>
                <path d="M53.249,5.149 C53.249,5.149 134.351,59.217 173.674,69.867 C212.996,80.517 253.138,92.017 253.138,92.017 L160.566,321.367 L200.708,323.005 L253.138,194.401 L251.499,4.33 L53.249,5.15 L53.249,5.149 Z" id="Shape" fill="url(#radialGradient-2)" opacity="0.668"></path>
                <path d="M128.617,246.817 L211.036,326.037 L55.706,324.643 C55.706,324.643 50.791,274.671 52.43,248.456 C54.068,222.241 62.26,222.241 62.26,222.241 L128.617,246.817 L128.617,246.817 Z" id="Shape" fill-opacity="0.44" fill="#FFFFFF"></path>
                <polygon id="Shape" fill-opacity="0.362" fill="#000000" points="206.443 326.282 130.255 247.637 60.622 221.422 6.554 100.997 63.899 5.15 27.163 5.15 9.831 18.257 4.096 29.726 4.096 326.282"></polygon>
                <path d="M253.138,200.942 C253.138,200.942 176.132,225.518 130.255,248.456 C84.379,271.395 59.803,327.101 59.803,327.101 C59.803,327.101 158.109,322.186 194.973,323.824 C231.838,325.463 249.042,325.463 252.319,273.852 C255.596,222.242 253.138,200.942 253.138,200.942 L253.138,200.942 Z" id="Shape" fill="#83222D" opacity="0.5"></path>
                <g id="Group" transform="translate(27.000000, 249.000000)" fill="#FFFFFF">
                    <path d="M0.833,0.867 L0.833,49.252 L13.173,49.252 L13.173,36.649 L24.405,47.88 L43.34,47.88 L28.322,32.862 C28.322,32.862 39.127,32.688 39.945,17.061 C39.945,2.724 29.128,0.867 16.635,0.867 L0.833,0.867 L0.833,0.867 Z M13.761,13.992 L24.405,13.992 L24.405,22.611 L13.76,22.611 L13.76,13.991 L13.761,13.992 Z M67.173,1.063 C60.417,1.025 51.045,1.652 51.045,14.383 L51.045,48.011 L63.713,48.011 L63.713,39.784 L75.988,39.784 L75.988,47.815 L88.721,47.815 L88.721,12.555 C88.721,1.495 76.434,1.063 69.851,1.063 C69.028,1.063 68.139,1.07 67.173,1.063 L67.173,1.063 Z M63.909,13.208 L75.792,13.208 L75.792,26.463 L63.91,26.463 L63.91,13.208 L63.909,13.208 Z M101.412,1.095 L114.519,1.095 L114.519,47.381 L101.412,47.381 L101.412,1.095 Z M128.242,1.71 L128.242,47.995 L159.782,47.995 L159.782,35.707 L141.144,35.707 L141.144,1.504 L128.242,1.709 L128.242,1.71 Z M201.561,1.3 L201.561,13.793 L180.467,13.793 L180.467,18.298 L189.478,18.298 C194.188,18.298 204.019,18.094 204.019,32.84 C204.019,47.585 197.261,48.405 183.539,48.405 L166.949,48.405 L166.949,37.14 L185.996,37.14 C191.731,37.14 192.047,35.274 192.047,33.647 C192.047,32.02 189.115,31.264 183.152,31.264 C177.19,31.264 166.13,28.334 166.13,16.864 C166.13,5.396 171.865,1.094 183.334,1.094 C194.803,1.094 201.561,1.3 201.561,1.3 L201.561,1.3 Z" id="Shape"></path>
                </g>
                <g id="Group" transform="translate(15.000000, 17.000000)" fill="#FFFFFF">
                    <path d="M24.322,219.168 L133.278,219.168 C133.278,219.168 109.111,164.281 115.255,113.898 C121.4,63.517 161.132,40.579 183.66,38.121 C206.189,35.664 218.477,49.591 218.477,49.591 L223.392,42.217 C223.392,42.217 191.033,9.449 150.072,13.135 C109.112,16.822 80.848,43.855 63.235,76.625 C45.622,109.393 35.382,132.331 28.418,166.738 C21.455,201.145 24.322,219.168 24.322,219.168 L24.322,219.168 Z M2.613,164.28 L23.913,165.92 L20.226,187.219 L0.156,184.761 L2.613,164.281 L2.613,164.28 Z M36.201,119.224 L41.936,103.249 L23.094,95.876 L16.949,113.08 L36.201,119.224 L36.201,119.224 Z M62.826,64.336 L73.885,51.23 L59.549,41.809 L48.079,54.507 L62.826,64.337 L62.826,64.336 Z M91.908,13.545 L101.738,25.423 L115.255,17.641 L105.425,6.581 L91.908,13.545 L91.908,13.545 Z M139.832,0.028 L142.29,11.906 L159.084,11.496 L157.445,0.847 L139.832,0.027 L139.832,0.028 Z" id="Shape"></path>
                    <path d="M196.768,12.726 L196.358,20.099 L207.827,26.243 L210.285,22.556 L196.768,12.726 L196.768,12.726 Z M194.31,44.265 L194.31,50.41 L205.37,51.638 L205.37,46.723 L194.31,44.265 L194.31,44.265 Z M159.084,49.59 L164.408,59.421 L172.191,53.277 L170.553,46.723 L159.083,49.59 L159.084,49.59 Z M142.29,62.288 L150.482,74.576 L145.566,83.178 L133.688,70.071 L142.29,62.288 L142.29,62.288 Z M125.905,96.286 L120.58,106.936 L134.507,118.814 L137.784,105.297 L125.905,96.286 L125.905,96.286 Z M120.17,133.56 L119.352,147.896 L136.555,155.269 L135.735,141.752 L120.171,133.56 L120.17,133.56 Z M125.086,184.351 L129.182,199.097 L150.892,200.327 L143.109,184.351 L125.086,184.351 L125.086,184.351 Z" id="Shape"></path>
                </g>
                <path d="M7.23,325.483 L7.236,324.587 L7.252,321.976 L7.308,312.056 C7.366,301.368 7.424,289.441 7.478,276.575 C7.634,239.815 7.727,202.892 7.727,168.204 C7.727,150.33 7.573,134.721 7.244,112.881 C6.238,46.151 6.722,33.441 12.292,21.448 C17.888,9.4 28.392,6.35 60.55,6.35 L252.32,6.35 L249.186,3.216 L249.186,224.699 C249.186,231.496 249.259,237.361 249.436,247.24 C250.122,285.317 249.279,296.144 243.133,306.178 C235.945,317.915 220.47,323.037 189.326,323.037 C171.743,323.037 151.057,322.997 127.903,322.921 C109.279,322.861 89.537,322.78 69.223,322.683 C47.9455949,322.581315 26.6682572,322.465981 5.391,322.337 L4.117,322.329 L7.231,325.483 L7.23,325.483 Z M0.942,328.577 L4.076,328.597 C5.72666428,328.607391 7.37733099,328.617391 9.028,328.627 C29.0822662,328.747123 49.1366032,328.855123 69.191,328.951 C89.509,329.048 109.254,329.129 127.882,329.19 C151.042,329.265 171.734,329.305 189.325,329.305 C222.433,329.305 239.849,323.541 248.478,309.452 C255.548,297.909 256.416,286.749 255.703,247.128 C255.526,237.284 255.453,231.449 255.453,224.699 L255.453,0.082 L60.55,0.082 C26.07,0.082 13.626,3.694 6.607,18.807 C3.098,26.362 1.403,36.821 0.788,52.98 C0.314,65.432 0.363,72.295 0.977,112.976 C1.305,134.787 1.459,150.367 1.459,168.204 C1.459,202.882 1.365,239.796 1.21,276.548 C1.14611172,291.678057 1.07044503,306.808061 0.983,321.938 L0.968,324.548 L0.942,328.578 L0.942,328.577 Z" id="Shape" fill="#5E000E"></path>
            </g>
        </g>
    </g>
</svg>