<?xml version="1.0" encoding="UTF-8"?>
<svg width="39px" height="34px" viewBox="0 0 39 34" version="1.1" xmlns="http://www.w3.org/2000/svg" xmlns:xlink="http://www.w3.org/1999/xlink">
    <!-- Generator: Sketch 3.8.3 (29802) - http://www.bohemiancoding.com/sketch -->
    <title>Shape</title>
    <desc>Created with Sketch.</desc>
    <defs></defs>
    <g id="Page-1" stroke="none" stroke-width="1" fill="none" fill-rule="evenodd">
        <g id="sentry" transform="translate(-1.000000, -1.000000)" fill="#E1567C">
            <path d="M23.39,2.78 C22.9192785,1.95617103 22.1383554,1.35506251 21.2215031,1.11081908 C20.3046509,0.866575649 19.3281793,0.999525768 18.51,1.48 C17.9780428,1.80199264 17.5319926,2.24804283 17.21,2.78 L12.21,11.46 L13.51,12.22 C20.7301511,16.3697692 25.3479997,23.9029644 25.77,32.22 L22.2,32.22 C21.7148982,25.2029648 17.7714995,18.8867797 11.68,15.37 L10.38,14.61 L5.6,22.61 L6.91,23.37 C10.0614863,25.2212615 12.1802898,28.4253058 12.65,32.05 L4.65,32.05 C4.33035495,32.0743924 4.04636851,31.8472033 4,31.53 C3.98441442,31.4089801 4.02491959,31.2874646 4.11,31.2 L6.38,27.3 C5.61911721,26.6308866 4.73633011,26.1147956 3.78,25.78 L1.48,29.68 C1.00180605,30.500349 0.870129136,31.4774046 1.11409137,32.395078 C1.35805361,33.3127513 1.9575522,34.0954249 2.78,34.57 C3.3084315,34.8730915 3.9112161,35.0220555 4.52,35 L15.69,35 L15.69,33.48 C15.651525,28.7709797 13.4038409,24.3533732 9.62,21.55 L11.35,18.55 C16.2838474,21.9542205 19.2414673,27.5557733 19.27,33.55 L19.27,35 L28.82,35 L28.82,33.48 C28.7637564,24.1260212 24.040164,15.417953 16.23,10.27 L19.81,4.09 C20.0035805,3.80856053 20.3759061,3.71440922 20.68,3.87 C20.79,3.87 20.79,3.98 20.9,4.09 L36.52,31.09 C36.6431807,31.36299 36.5499602,31.6850244 36.3,31.85 C36.19,31.85 36.08,31.96 35.98,31.96 L32.18,31.96 L32.18,34.89 L35.87,34.89 C37.8381504,34.86837 39.42837,33.2781504 39.45,31.31 C39.4713598,30.7018502 39.3149814,30.1006622 39,29.58 L23.39,2.78 Z" id="Shape"></path>
        </g>
    </g>
</svg>