<?xml version="1.0" encoding="UTF-8"?>
<svg width="125px" height="120px" viewBox="0 0 125 120" version="1.1" xmlns="http://www.w3.org/2000/svg" xmlns:xlink="http://www.w3.org/1999/xlink">
    <!-- Generator: Sketch 3.8.3 (29802) - http://www.bohemiancoding.com/sketch -->
    <title>Shape</title>
    <desc>Created with Sketch.</desc>
    <defs></defs>
    <g id="Page-1" stroke="none" stroke-width="1" fill="none" fill-rule="evenodd">
        <g id="Group" transform="translate(-43.000000, -45.000000)" fill="#0868AC">
            <path d="M106.568847,147.931 C105.740847,147.744 104.935847,147.485 104.127847,147.246 L103.518847,147.061 C102.728847,146.819 101.945847,146.564 101.166847,146.296 L100.843847,146.179 C100.145847,145.934 99.4558471,145.675 98.7698471,145.41 L98.1878471,145.181 C97.4358471,144.884 96.6878471,144.574 95.9498471,144.25 L95.5028471,144.052 C94.8678471,143.764 94.2398471,143.474 93.6138471,143.173 L93.0678471,142.911 C92.5768471,142.672 92.0908471,142.418 91.6068471,142.168 C91.2828471,141.997 90.9528471,141.836 90.6318471,141.658 C90.0398471,141.341 89.4588471,141.012 88.8808471,140.676 L88.2898471,140.346 C87.5208471,139.894 86.7608471,139.425 86.0098471,138.949 L85.3948471,138.539 C84.8488471,138.188 84.3068471,137.83 83.7718471,137.46 L83.2488471,137.093 C82.7328471,136.728 82.2228471,136.359 81.7148471,135.984 L81.0358471,135.47 C80.5718471,135.115 80.1088471,134.757 79.6518471,134.388 L79.0348471,133.893 C78.4538471,133.414 77.8788471,132.934 77.3108471,132.44 L77.1228471,132.281 C76.5088471,131.742 75.9058471,131.189 75.3108471,130.634 L74.8008471,130.143 C74.3598471,129.723 73.9258471,129.3 73.4988471,128.866 L72.9888471,128.357 C72.4458471,127.801 71.9128471,127.238 71.3898471,126.667 L71.3118471,126.583 C70.7588471,125.979 70.2198471,125.362 69.6908471,124.739 L69.2668471,124.235 C68.8718471,123.76 68.4818471,123.279 68.0998471,122.793 L67.6728471,122.261 C67.2138471,121.665 66.7648471,121.072 66.3258471,120.467 C54.1758471,103.893 49.8098471,81.035 59.5218471,62.263 L50.9108471,73.184 C39.8818471,89.035 41.2548471,109.66 49.6798471,126.504 C49.8798471,126.908 50.0908471,127.305 50.2968471,127.702 L50.6918471,128.461 L50.9368471,128.898 L51.3758471,129.684 C51.6378471,130.145 51.9058471,130.604 52.1808471,131.063 L52.6388471,131.819 C52.9428471,132.31 53.2538471,132.795 53.5728471,133.279 L53.9708471,133.893 C54.4088471,134.548 54.8588471,135.202 55.3228471,135.844 L55.3618471,135.894 L55.5898471,136.202 C55.9898471,136.755 56.4038471,137.301 56.8218471,137.841 L57.2848471,138.431 C57.6578471,138.9 58.0368471,139.366 58.4238471,139.83 L58.8588471,140.35 C59.3768471,140.96 59.9058471,141.567 60.4448471,142.162 L60.4768471,142.195 L60.5388471,142.263 C61.0648471,142.838 61.6048471,143.4 62.1508471,143.962 L62.6678471,144.483 C63.0908471,144.909 63.5208471,145.328 63.9548471,145.745 L64.4808471,146.245 C65.0608471,146.792 65.6468471,147.328 66.2448471,147.852 L66.2728471,147.874 L66.5798471,148.136 C67.1058471,148.592 67.6418471,149.045 68.1828471,149.489 L68.8468471,150.018 C69.2878471,150.372 69.7338471,150.72 70.1828471,151.062 L70.8968471,151.605 C71.3918471,151.97 71.8918471,152.329 72.3958471,152.68 L72.9418471,153.067 L73.0918471,153.174 C73.5698471,153.503 74.0588471,153.82 74.5478471,154.137 L75.1778471,154.557 C75.9268471,155.031 76.6878471,155.5 77.4558471,155.953 L78.0858471,156.308 C78.6508471,156.634 79.2198471,156.954 79.7968471,157.267 C80.1088471,157.435 80.4288471,157.594 80.7428471,157.755 C81.1498471,157.968 81.5538471,158.184 81.9678471,158.391 L82.2508471,158.528 L82.7518471,158.77 C83.3928471,159.076 84.0388471,159.377 84.6918471,159.667 L85.1018471,159.851 C85.8498471,160.178 86.6038471,160.492 87.3648471,160.792 L87.9158471,161.009 C88.6198471,161.28 89.3338471,161.548 90.0508471,161.8 L90.3188471,161.893 C91.1048471,162.168 91.8998471,162.423 92.6998471,162.672 L93.2748471,162.844 C94.0888471,163.089 94.8928471,163.382 95.7328471,163.537 C149.071847,173.264 164.565847,131.484 164.565847,131.484 C151.551847,148.438 128.453847,152.91 106.568847,147.931 L106.568847,147.931 Z M87.3548471,104.7 C88.5498471,106.413 89.8748471,108.451 91.4598471,109.827 C92.0348471,110.46 92.6358471,111.078 93.2498471,111.685 L93.7218471,112.15 C94.3178471,112.728 94.9238471,113.296 95.5498471,113.848 L95.6238471,113.912 L95.6418471,113.93 C96.3348471,114.538 97.0498471,115.121 97.7768471,115.697 L98.2608471,116.075 C98.9898471,116.634 99.7328471,117.182 100.493847,117.706 L100.558847,117.755 C100.894847,117.987 101.237847,118.203 101.578847,118.427 L102.060847,118.746 C102.604847,119.095 103.156847,119.435 103.716847,119.761 L103.950847,119.897 C104.433847,120.175 104.923847,120.449 105.413847,120.715 L105.934847,120.986 C106.273847,121.163 106.612847,121.344 106.958847,121.516 L107.113847,121.586 C107.815847,121.932 108.524847,122.266 109.249847,122.581 L109.721847,122.775 C110.299847,123.021 110.884847,123.261 111.471847,123.485 L112.221847,123.76 C112.754847,123.958 113.289847,124.138 113.829847,124.319 L114.556847,124.552 C115.323847,124.79 116.081847,125.091 116.880847,125.224 C158.063847,132.047 167.570847,100.338 167.570847,100.338 C159.000847,112.681 142.402847,118.571 124.691847,113.973 C123.904847,113.766 123.129847,113.542 122.358847,113.299 L121.658847,113.072 C121.110847,112.895 120.566847,112.707 120.026847,112.51 L119.290847,112.236 C118.699847,112.008 118.114847,111.774 117.534847,111.528 L117.061847,111.328 C116.334847,111.012 115.618847,110.678 114.913847,110.329 C114.549847,110.152 114.192847,109.965 113.835847,109.781 L113.213847,109.461 C112.755847,109.213 112.299847,108.955 111.850847,108.691 L111.524847,108.506 C110.966847,108.181 110.418847,107.845 109.874847,107.498 L109.376847,107.166 C109.018847,106.934 108.659847,106.697 108.307847,106.459 C107.548847,105.935 106.810847,105.387 106.081847,104.831 L105.580847,104.436 C97.8288471,98.316 91.6838471,89.95 88.7618471,80.465 C85.6998471,70.629 86.3608471,59.587 91.6648471,50.625 L85.1478471,59.825 C77.1708471,71.303 77.6048471,86.669 83.8268471,98.808 C84.8698471,100.846 86.0428471,102.821 87.3548471,104.7 L87.3548471,104.7 Z M130.761847,90.501 C131.100847,90.626 131.439847,90.738 131.783847,90.855 L132.234847,90.998 C132.718847,91.15 133.200847,91.327 133.701847,91.422 C156.440847,95.816 162.609847,79.753 164.250847,77.388 C158.847847,85.167 149.768847,87.034 138.627847,84.33 C137.747847,84.117 136.779847,83.799 135.931847,83.498 C134.843847,83.11 133.771847,82.668 132.730847,82.169 C130.751847,81.218 128.866847,80.065 127.118847,78.745 C117.149847,71.18 110.956847,56.751 117.461847,45 L113.941847,49.851 C109.239847,56.771 108.777847,65.365 112.040847,73.007 C115.481847,81.119 122.532847,87.482 130.761847,90.501 L130.761847,90.501 Z" id="Shape"></path>
        </g>
    </g>
</svg>