<svg height="512pt" viewBox="-16 0 512 512.00104" width="512pt" xmlns="http://www.w3.org/2000/svg"><path d="m457.839844 504.5c9.953125 0 17.507812-8.957031 15.832031-18.765625l-10.246094-59.992187c-4.570312-26.75-24.164062-48.464844-50.308593-55.75l-102.351563-21.75c-10.671875-2.144532-18.351563-14.527344-18.351563-25.410157v-48.511719h-103.425781v48.511719c0 10.882813-7.675781 23.265625-18.351562 25.410157l-102.351563 21.75c-26.144531 7.285156-45.738281 29-50.304687 55.75l-10.25 59.992187c-1.671875 9.808594 5.882812 18.765625 15.832031 18.765625zm0 0" fill="#ffede1"/><path d="m326.050781 41.683594c-31.433593-34.328125-78.859375-34.183594-78.859375-34.183594h-12.980468s-47.421876-.144531-78.855469 34.179688c-16.8125 18.355468-25.097657 42.960937-23.707031 67.808593l5.59375 99.683594c.953124 17.003906 6.496093 33.441406 16.085937 47.519531 11.039063 16.210938 51.191406 51.863282 60.324219 55.761719 17.285156 7.371094 36.8125 7.371094 54.097656 0 9.132812-3.898437 49.285156-39.550781 60.324219-55.761719 9.585937-14.078125 15.128906-30.507812 16.085937-47.515625 1.609375-28.746093 4.214844-75.136719 5.59375-99.699219 1.394532-24.847656-6.894531-49.4375-23.703125-67.792968zm0 0" fill="#ffede1"/><path d="m326.050781 41.683594c-31.433593-34.328125-78.859375-34.183594-78.859375-34.183594h-12.980468s-9.367188-.027344-22.535157 2.953125c16.460938 3.730469 38.863281 12.160156 56.324219 31.234375 16.808594 18.351562 25.097656 42.941406 23.703125 67.789062-1.378906 24.5625-3.980469 70.953126-5.597656 99.703126-.953125 17.007812-6.496094 33.433593-16.082031 47.515624-10.375 15.230469-46.457032 47.636719-58.347657 54.71875.761719.453126 1.425781.804688 1.976563 1.039063 17.285156 7.371094 36.8125 7.371094 54.097656 0 9.132812-3.894531 49.285156-39.546875 60.324219-55.757813 9.585937-14.082031 15.128906-30.507812 16.085937-47.515624 1.609375-28.75 4.214844-75.136719 5.59375-99.703126 1.394532-24.847656-6.894531-49.4375-23.703125-67.792968zm0 0" fill="#ffe1cc"/><path d="m473.671875 485.734375-10.246094-59.992187c-4.570312-26.75-24.164062-48.464844-50.308593-55.75l-93.386719-19.847657-.640625.445313c-47.117188 32.785156-109.65625 32.785156-156.773438 0l-.640625-.445313-93.390625 19.847657c-26.144531 7.285156-45.738281 29-50.304687 55.75l-10.25 59.992187c-1.671875 9.808594 5.882812 18.765625 15.832031 18.765625h434.277344c9.953125 0 17.507812-8.957031 15.832031-18.765625zm0 0" fill="#fc5c5a"/><path d="m473.875 489.429688c.011719-.195313.023438-.390626.027344-.585938 0-.027344 0-.054688 0-.082031.003906-.199219.003906-.398438 0-.597657 0-.023437 0-.050781 0-.074218-.007813-.199219-.015625-.398438-.027344-.597656 0-.027344-.003906-.058594-.003906-.085938-.007813-.09375-.011719-.1875-.019532-.28125-.003906-.011719-.003906-.023438-.003906-.035156-.007812-.09375-.019531-.1875-.027344-.28125-.003906-.027344-.007812-.058594-.007812-.085938-.011719-.09375-.023438-.1875-.035156-.28125 0-.011718-.003906-.023437-.003906-.035156-.011719-.09375-.023438-.1875-.039063-.28125-.003906-.027344-.007813-.058594-.011719-.089844-.015625-.09375-.03125-.1875-.046875-.28125 0-.007812 0-.011718-.003906-.019531l-10.246094-59.988281c-4.570312-26.753906-24.164062-48.46875-50.304687-55.753906l-93.390625-19.84375-.640625.445312c-16.964844 11.800781-35.925782 19.355469-55.449219 22.660156l88.425781 18.789063c26.144532 7.285156 45.738282 29 50.308594 55.753906l9.683594 56.703125h45.785156c.152344 0 .308594-.003906.464844-.007812.074218 0 .152344-.003907.230468-.007813.304688-.011719.613282-.035156.914063-.0625.074219-.007813.152344-.015625.226563-.023437.449218-.050782.894531-.121094 1.332031-.210938.148437-.027344.292969-.058594.4375-.089844.359375-.085937.714843-.179687 1.066406-.285156.28125-.085938.558594-.175781.832031-.277344.480469-.171875.945313-.371094 1.402344-.585937.085938-.042969.171875-.085938.257812-.128907.023438-.011718.042969-.019531.066407-.03125.171875-.085937.339843-.175781.507812-.269531.023438-.011719.039063-.023437.0625-.03125.167969-.09375.332031-.191406.496094-.289062.019531-.011719.042969-.027344.0625-.039063.078125-.046875.15625-.09375.230469-.144531.007812-.003906.011718-.007813.015625-.007813.078125-.050781.15625-.101562.234375-.152343.019531-.011719.035156-.027344.054687-.039063.078125-.050781.15625-.101562.230469-.15625.003906-.003906.011719-.007812.015625-.011718.074219-.050782.148437-.101563.222656-.15625.023438-.015626.039063-.027344.058594-.042969.074219-.054688.148437-.109375.222656-.164063.003907-.003906.007813-.007812.015625-.011718.074219-.054688.148438-.113282.222656-.171876.015626-.011718.03125-.023437.046876-.035156.148437-.121094.296874-.242187.441406-.367187.019531-.011719.035156-.027344.054687-.042969.144531-.125.289063-.25.429688-.378906.011719-.015625.027343-.03125.042969-.042969.140624-.132813.28125-.265625.417968-.402344.015625-.011719.027344-.027343.042969-.039062.132813-.136719.265625-.277344.398437-.417969.015626-.015625.027344-.027344.042969-.046875.128907-.140625.257813-.28125.378907-.425781.015624-.015625.03125-.035156.046874-.050782.121094-.144531.242188-.292968.359376-.441406.015624-.015625.027343-.035156.042968-.054687.117188-.148438.230469-.296875.34375-.449219.011719-.019531.027344-.039062.042969-.0625.109375-.152344.21875-.304688.324219-.460938.011718-.019531.023437-.039062.035156-.058593.105469-.160157.210938-.320313.3125-.484375.007812-.015625.019531-.035156.03125-.050782.097656-.164062.195312-.332031.292969-.5.007812-.015624.015625-.03125.027343-.050781.09375-.167969.183594-.335937.273438-.507812.007812-.019531.019531-.042969.03125-.0625.085938-.167969.167969-.339844.246094-.511719.011718-.023438.019531-.042969.03125-.066406.078125-.175782.15625-.347656.230468-.523438.007813-.023437.015626-.042968.023438-.066406.074219-.175781.144531-.355469.207031-.535156.011719-.019532.015625-.039063.023438-.0625.066406-.179688.128906-.363282.1875-.542969.007812-.023437.015625-.046875.023437-.074219.058594-.179687.113282-.363281.164063-.546875.007812-.023437.011719-.046875.019531-.074219.050781-.183593.097656-.371093.140625-.558593.007813-.023438.011719-.046875.015625-.070313.042969-.1875.085938-.378906.121094-.566406.003906-.027344.007812-.046875.011718-.074219.039063-.191406.070313-.378906.097657-.574219.003906-.023437.007812-.046874.011719-.070312.027343-.195312.050781-.386719.074218-.585938 0-.023437.003906-.046874.003906-.070312.019532-.195312.039063-.390625.050782-.585938 0-.027343.003906-.050781.003906-.078124zm0 0" fill="#db4242"/><path d="m292.414062 322.828125v-29.347656c-10.796874 9.53125-20.679687 17.273437-24.664062 18.972656-10.523438 4.488281-21.878906 6.242187-33.050781 5.265625v27.796875c0 10.886719 7.675781 23.265625 18.351562 25.410156l10.523438 2.3125.0625.011719c19.523437-3.304688 38.488281-10.855469 55.453125-22.660156l.640625-.445313-8.964844-1.90625c-10.671875-2.140625-18.351563-14.523437-18.351563-25.410156zm0 0" fill="#ffe1cc"/><path d="m138.175781 187.9375h-33.269531c-4.386719 0-7.945312-3.554688-7.945312-7.945312v-64.972657c0-4.386719 3.558593-7.945312 7.945312-7.945312h33.269531zm0 0" fill="#465058"/><path d="m343.191406 187.9375h33.269532c4.390624 0 7.945312-3.554688 7.945312-7.945312v-64.972657c0-4.386719-3.554688-7.945312-7.945312-7.945312h-33.269532zm0 0" fill="#323e44"/><path d="m119.277344 104.351562v86.3125c0 3.6875 2.992187 6.675782 6.679687 6.675782h84.265625c5.371094 0 10.636719-1.464844 15.230469-4.242188 9.367187-5.65625 21.09375-5.65625 30.460937 0 4.59375 2.777344 9.859376 4.242188 15.230469 4.242188h84.265625c3.6875 0 6.679688-2.988282 6.679688-6.675782v-86.3125c0-3.6875-2.992188-6.679687-6.679688-6.679687h-229.453125c-3.6875 0-6.679687 2.992187-6.679687 6.679687zm0 0" fill="#dae5ea"/><path d="m355.410156 97.671875h-51.195312v99.667969h51.195312c3.6875 0 6.679688-2.988282 6.679688-6.675782v-86.3125c0-3.6875-2.992188-6.679687-6.679688-6.679687zm0 0" fill="#c9d1d3"/><path d="m262.261719 126.28125c-.066407-.257812-.128907-.515625-.128907-.644531 0-2.058594 3.027344-3.476563 5.277344-3.476563 1.417969 0 2.511719.449219 2.832032 1.675782l9.851562 34.890624 9.785156-34.890624c.320313-1.226563 1.417969-1.675782 2.832032-1.675782 2.253906 0 5.28125 1.480469 5.28125 3.476563 0 .195312-.066407.386719-.132813.644531l-12.359375 40.492188c-.578125 1.933593-2.960938 2.832031-5.40625 2.832031s-4.765625-.898438-5.40625-2.832031zm0 0"/><path d="m302.433594 124.738281c0-1.351562 1.09375-2.574219 2.703125-2.574219h12.746093c8.433594 0 15.257813 3.21875 15.257813 13.453126 0 7.402343-3.605469 11.394531-8.433594 12.875l8.433594 15.644531c.257813.320312.320313.773437.320313 1.03125 0 2.125-2.765626 4.375-5.214844 4.375-1.15625 0-2.25-.707031-2.894532-1.996094l-9.140624-17.769531h-5.410157v16.804687c0 1.738281-2.058593 2.640625-4.183593 2.640625-2.0625 0-4.1875-.902344-4.1875-2.640625v-41.84375zm8.367187 4.761719v13.710938h7.082031c4.183594 0 6.886719-1.738282 6.886719-6.824219 0-5.085938-2.703125-6.886719-6.886719-6.886719zm0 0"/><path d="m481.066406 484.472656-4.277344-25.03125c-.695312-4.082031-4.574218-6.828125-8.65625-6.128906-4.082031.699219-6.824218 4.574219-6.128906 8.65625l4.277344 25.027344c.429688 2.53125-.242188 5.003906-1.898438 6.964844-1.652343 1.960937-3.976562 3.039062-6.542968 3.039062h-52.570313l-9.390625-57.699219c-.664062-4.085937-4.507812-6.859375-8.605468-6.195312-4.089844.664062-6.863282 4.515625-6.199219 8.605469l9 55.289062h-298.742188l8.996094-55.289062c.667969-4.089844-2.109375-7.941407-6.195313-8.605469-4.082031-.664063-7.941406 2.105469-8.609374 6.195312l-9.386719 57.699219h-52.574219c-2.566406 0-4.890625-1.078125-6.542969-3.039062-1.652343-1.960938-2.328125-4.433594-1.894531-6.964844l10.246094-59.988282c3.503906-20.519531 17.121094-37.886718 35.71875-46.421874.980468-.207032 1.890625-.605469 2.6875-1.15625 2.046875-.824219 4.152344-1.546876 6.300781-2.152344l90.007813-19.125c23.925781 16.054687 51.746093 24.527344 80.617187 24.527344s56.6875-8.472657 80.617187-24.527344l90.003907 19.125c23.125 6.535156 40.660156 26.03125 44.707031 49.730468.699219 4.082032 4.574219 6.824219 8.65625 6.128907 4.082031-.695313 6.828125-4.574219 6.128906-8.65625-5.03125-29.464844-26.890625-53.691407-55.683594-61.714844-.148437-.042969-.300781-.078125-.457031-.109375l-93.386719-19.847656-9.042968-1.921875c-5.820313-1.167969-12.328125-9.140625-12.328125-18.054688v-25.980469c13.839843-12.414062 28.265625-26.988281 34.355469-35.9375 10.335937-15.171874 16.34375-32.917968 17.375-51.3125l.265624-4.761718h3.5c6.140626 0 11.382813-3.925782 13.347657-9.402344h7.703125c8.515625 0 15.445312-6.925781 15.445312-15.441406v-64.976563c0-8.515625-6.929687-15.445312-15.445312-15.445312h-7.703125c-1.851563-5.160157-6.613281-8.941407-12.296875-9.363281-2.746094-20.097657-11.445313-38.914063-24.878906-53.589844-33.042969-36.082032-81.609376-36.621094-84.339844-36.621094-.019532 0-.039063 0-.054688 0h-12.960937c-2.109375.0195312-51.117188.265625-84.40625 36.613281-13.4375 14.671875-22.132813 33.488281-24.882813 53.59375-5.699218.40625-10.480468 4.195313-12.335937 9.367188h-7.703125c-8.515625 0-15.445313 6.929687-15.445313 15.445312v24.988281h-11.683593c-14.199219 0-25.746094 11.546876-25.746094 25.746094v202.5625c-21.597656 10.996094-37.277344 31.789063-41.441406 56.164063l-10.246094 59.992187c-1.171875 6.859375.730468 13.84375 5.214844 19.160156 4.488281 5.316407 11.050781 8.367188 18.007812 8.367188h434.277344c6.957031 0 13.523437-3.050781 18.007812-8.367188 4.488282-5.316406 6.390625-12.300781 5.21875-19.160156zm-111.476562-369.898437h6.871094c.246093 0 .445312.199219.445312.445312v64.972657c0 .246093-.199219.445312-.445312.445312h-6.871094zm-68.160156 238.027343c-18.644532 9.902344-39.363282 15.078126-60.726563 15.078126-21.371094 0-42.097656-5.179688-60.746094-15.085938 10.382813-6.050781 16.53125-18.875 16.53125-29.761719v-13.222656c6.148438 4.902344 11.277344 8.484375 14.222657 9.742187 9.53125 4.0625 19.761718 6.097657 29.992187 6.097657s20.460937-2.03125 29.988281-6.097657c2.949219-1.257812 8.078125-4.84375 14.222656-9.742187v13.222656c0 10.894531 6.164063 23.734375 16.515626 29.769531zm-140.542969-305.855468c28.71875-31.359375 72.871093-31.746094 73.324219-31.746094h13.003906.003906c.652344 0 44.511719.308594 73.300781 31.75 10.917969 11.925781 18.144531 27.113281 20.773438 43.421875h-201.183594c2.632813-16.316406 9.859375-31.503906 20.777344-43.425781zm-34.109375 58.425781h4.917968.125 222.769532v84.667969h-83.445313c-4.003906 0-7.929687-1.09375-11.355469-3.164063-11.785156-7.117187-26.425781-7.117187-38.210937 0-3.425781 2.070313-7.351563 3.164063-11.355469 3.164063h-13.542968c-4.140626 0-7.5 3.359375-7.5 7.5s3.359374 7.5 7.5 7.5h13.542968c6.734375 0 13.34375-1.839844 19.109375-5.324219 7.003907-4.226563 15.703125-4.226563 22.703125 0 5.765625 3.484375 12.371094 5.324219 19.105469 5.324219h65.75l-.222656 3.917968c-.878907 15.675782-5.992188 30.789063-14.792969 43.710938-10.828125 15.902344-50.191406 50.152344-57.066406 53.082031-15.324219 6.535157-32.894532 6.535157-48.214844 0-2.257812-.960937-10.507812-6.976562-22.542969-17.605469-.0625-.058593-.128906-.117187-.195312-.171874-1.480469-1.308594-3.015625-2.6875-4.605469-4.132813-13.777344-12.53125-25.164062-24.476563-29.722656-31.171875-8.800782-12.921875-13.917969-28.039062-14.796875-43.71875l-.21875-3.910156h17.238281c4.144531 0 7.5-3.359375 7.5-7.5 0-4.144532-3.355469-7.5-7.5-7.5h-34.972656zm-22.316406 9.847656c0-.246093.199218-.445312.445312-.445312h6.871094v65.863281h-6.871094c-.246094 0-.445312-.199219-.445312-.445312zm-37.433594 50.734375c0-5.925781 4.820312-10.746094 10.746094-10.746094h11.6875v24.984376c0 8.515624 6.929687 15.445312 15.445312 15.445312h7.699219c1.964843 5.476562 7.207031 9.402344 13.351562 9.402344h3.53125l.269531 4.753906c1.03125 18.398438 7.039063 36.148438 17.375 51.320312 6.089844 8.949219 20.515626 23.523438 34.355469 35.9375v25.980469c0 8.914063-6.507812 16.886719-12.410156 18.074219l-8.960937 1.902344-93.089844 19.78125zm0 0"/></svg>